<?xml version="1.0" encoding="UTF-8"?>
<svg id="Layer_1" data-name="Layer 1" xmlns="http://www.w3.org/2000/svg" viewBox="0 0 800 450">
  <defs>
    <style>
      .cls-1 {
        fill: #d2494c;
      }
    </style>
  </defs>
  <path class="cls-1" d="M493.66,78.17c-.7,2.31-133.88,293.66-133.88,293.66h-121.44L374.33,78.17h119.33Z"/>
  <polygon class="cls-1" points="334.99 78.17 201.11 371.83 138.46 246.88 215.89 78.17 334.99 78.17"/>
  <polygon class="cls-1" points="115.57 208.74 114.99 210.16 114.96 210.07 115.57 208.74"/>
  <path class="cls-1" d="M751.2,183.48c0,11.21-1.67,23.34-5.23,35.42-8.71,29.49-30.16,52.75-57.62,65.22l31.77,87-120.53.72-26.79-73.39h-18.47l-34.28,73.39h-121.05l71.06-155.22h143.92c25.85,0,33.8-12.99,33.8-29.8s-11.69-24.76-31.72-24.76h-121.05s37.17-81.57,37.87-83.88h104.44c81.77,0,113.88,59.15,113.88,105.31Z"/>
  <polygon class="cls-1" points="176.7 78.17 117.19 208.74 116.58 210.07 50.42 78.17 176.7 78.17"/>
</svg>